<?xml version="1.0" encoding="UTF-8" standalone="no"?>
<!-- Created with Inkscape (http://www.inkscape.org/) -->

<svg
   version="1.1"
   id="svg2"
   width="1122.52"
   height="593.44397"
   viewBox="0 0 1122.52 593.44397"
   sodipodi:docname="logo.ai"
   xmlns:inkscape="http://www.inkscape.org/namespaces/inkscape"
   xmlns:sodipodi="http://sodipodi.sourceforge.net/DTD/sodipodi-0.dtd"
   xmlns="http://www.w3.org/2000/svg"
   xmlns:svg="http://www.w3.org/2000/svg">
  <defs
     id="defs6">
    <clipPath
       clipPathUnits="userSpaceOnUse"
       id="clipPath28">
      <path
         d="M 0,445.083 H 841.89 V 0 H 0 Z"
         id="path26" />
    </clipPath>
  </defs>
  <sodipodi:namedview
     id="namedview4"
     pagecolor="#ffffff"
     bordercolor="#000000"
     borderopacity="0.25"
     inkscape:showpageshadow="2"
     inkscape:pageopacity="0.0"
     inkscape:pagecheckerboard="0"
     inkscape:deskcolor="#d1d1d1" />
  <g
     id="g8"
     inkscape:groupmode="layer"
     inkscape:label="logo"
     transform="matrix(1.3333333,0,0,-1.3333333,0,593.444)">
    <g
       id="g10"
       transform="translate(365.5273,217.3917)">
      <path
         d="M 0,0 V -33.92 H -18.594 V 44.962 H 0 V 15.324 H 28.624 V 44.962 H 47.218 V -33.92 H 28.624 V 0 Z"
         style="fill:#efaa0a;fill-opacity:1;fill-rule:nonzero;stroke:none"
         id="path12" />
    </g>
    <g
       id="g14"
       transform="translate(475.0391,262.3536)">
      <path
         d="M 0,0 H 18.707 L 48.345,-78.883 H 28.513 L 23.485,-64.12 H -4.89 L -9.805,-78.883 H -29.524 Z M -0.868,-50.598 H 19.464 L 9.41,-20.51 Z"
         style="fill:#efaa0a;fill-opacity:1;fill-rule:nonzero;stroke:none"
         id="path16" />
    </g>
    <g
       id="g18"
       transform="translate(729.4062,262.3531)">
      <path
         d="M 0,0 -31.442,-50.935 V 0 h -18.594 v -78.882 h 18.594 L 0,-27.384 V -78.882 H 18.594 V 0 Z"
         style="fill:#efaa0a;fill-opacity:1;fill-rule:nonzero;stroke:none"
         id="path20" />
    </g>
    <g
       id="g22">
      <g
         id="g24"
         clip-path="url(#clipPath28)">
        <g
           id="g30"
           transform="translate(230.8701,191.8839)">
          <path
             d="m 0,0 c 0,-13.979 -21.57,-25.309 -48.177,-25.309 -26.608,0 -48.178,11.33 -48.178,25.309 v 5.489 c 0,1.779 0.353,3.511 1.015,5.183 4.552,-11.492 23.939,-20.124 47.163,-20.124 23.227,0 42.61,8.632 47.162,20.124 C -0.351,9 0,7.268 0,5.489 Z M 0,24.093 C 0,10.115 -21.57,-1.216 -48.177,-1.216 c -26.608,0 -48.178,11.331 -48.178,25.309 v 5.491 c 0,1.776 0.353,3.509 1.015,5.181 4.552,-11.493 23.939,-20.126 47.163,-20.126 23.227,0 42.61,8.633 47.162,20.126 C -0.351,33.093 0,31.36 0,29.584 Z M 0,48.54 C 0,34.561 -21.57,23.229 -48.177,23.229 c -26.608,0 -48.178,11.332 -48.178,25.311 v 5.49 c 0,1.778 0.353,3.509 1.015,5.182 4.552,-11.492 23.939,-20.126 47.163,-20.126 23.227,0 42.61,8.634 47.162,20.126 C -0.351,57.539 0,55.808 0,54.03 Z M 0,73.39 C 0,59.413 -21.57,48.082 -48.177,48.082 c -26.608,0 -48.178,11.331 -48.178,25.308 v 5.492 c 0,1.775 0.353,3.508 1.015,5.18 4.552,-11.492 23.939,-20.124 47.163,-20.124 23.227,0 42.61,8.632 47.162,20.124 C -0.351,82.39 0,80.657 0,78.882 Z"
             style="fill:#efaa0a;fill-opacity:1;fill-rule:nonzero;stroke:none"
             id="path32" />
        </g>
        <path
           d="m 285.556,112.148 h 6.691 v 218.484 h -6.691 z"
           style="fill:#efaa0a;fill-opacity:1;fill-rule:nonzero;stroke:none"
           id="path34" />
        <g
           id="g36"
           transform="translate(588.2939,180.5401)">
          <path
             d="m 0,0 v 11.155 h -3.042 c -12.396,-0.074 -21.677,2.917 -27.834,8.978 -6.163,6.054 -9.241,13.753 -9.241,23.087 0,9.178 3.099,16.818 9.295,22.913 6.197,6.098 15.458,9.146 27.78,9.146 H 0 V 86.435 H 18.595 V 75.279 h 2.928 c 12.323,-0.075 21.599,-3.143 27.834,-9.2 6.239,-6.058 9.355,-13.681 9.355,-22.859 0,-9.41 -3.116,-17.106 -9.355,-23.087 C 43.122,14.148 33.846,11.155 21.523,11.155 H 18.595 V 0 Z M 1.691,26.259 V 60.177 H 0.233 c -7.252,-0.076 -12.541,-1.555 -15.867,-4.435 -3.325,-2.884 -4.988,-7.057 -4.988,-12.522 0,-5.545 1.663,-9.774 4.988,-12.693 3.326,-2.923 8.615,-4.345 15.867,-4.268 z m 15.213,0 h 1.457 c 6.725,-0.077 11.886,1.252 15.474,3.984 3.587,2.734 5.382,7.058 5.382,12.977 0,5.465 -1.684,9.638 -5.048,12.522 -3.36,2.88 -8.633,4.359 -15.808,4.435 h -1.457 z"
             style="fill:#efaa0a;fill-opacity:1;fill-rule:nonzero;stroke:none"
             id="path38" />
        </g>
      </g>
    </g>
  </g>
</svg>
